<?xml version="1.0" encoding="UTF-8" standalone="no"?>
<!DOCTYPE svg PUBLIC "-//W3C//DTD SVG 1.1//EN" "http://www.w3.org/Graphics/SVG/1.1/DTD/svg11.dtd">
<svg version="1.1" xmlns="http://www.w3.org/2000/svg" xmlns:xlink="http://www.w3.org/1999/xlink" preserveAspectRatio="xMidYMid meet" viewBox="0 0 780 240" width="780" height="240"><defs><path d="M700.91 9.63L700.91 163.52L702.47 165.08L773.9 122.85L702.47 4.33L700.91 9.63Z" id="auAWD0wyO"></path><path d="M773.9 122.85L702.47 90.39L702.47 165.08L773.9 122.85Z" id="jlrtvMvm8"></path><path d="M631.04 122.85L702.47 165.08L702.47 90.39L702.47 4.33L631.04 122.85Z" id="aqsnpj3Bt"></path><path d="M702.47 165.08L702.47 90.39L631.04 122.85L702.47 165.08Z" id="eZdNJYWkq"></path><path d="M702.47 178.6L631.04 136.4L702.47 237.06L702.47 178.6Z" id="a90t7Bd2la"></path><path d="M701.59 179.67L701.59 234.49L702.47 237.06L773.95 136.4L702.47 178.6L701.59 179.67Z" id="bsmT6mtPw"></path><path d="M394.92 232.94C379.1 228.87 353.2 215.92 335.43 202.97C334.48 202.28 329.71 198.81 321.13 192.58C315.89 196.55 312.97 198.76 312.39 199.2C307.57 202.97 303.36 205.68 303.05 205.38C302 204.32 298.69 107.95 299.59 107.04C300.49 106.14 388.14 132.49 392.51 134.9C394.01 135.65 392.2 137.76 386.03 142.43C381.36 145.89 377.6 149.66 377.6 150.71C377.6 153.72 394.01 169.69 403.8 176.16C430.15 193.63 468.1 202.06 502.59 198.3C523.37 196.04 541.89 190.77 557.85 182.49C564.78 178.87 570.35 176.77 570.35 177.67C570.35 178.57 567.04 183.54 562.82 188.51C535.27 222.7 478.64 242.12 421.27 237.15C413.44 236.55 401.54 234.59 394.92 232.94Z" id="b1vo1wpTn0"></path><path d="M476.08 104.33C475.63 103.88 479.1 100.72 483.61 97.1C488.28 93.49 492.05 89.72 492.05 88.82C492.05 85.81 475.48 69.85 465.84 63.52C439.64 46.2 401.09 37.47 366.91 41.23C346.27 43.64 327.6 48.91 311.79 57.2C304.86 60.81 299.29 62.92 299.29 62.02C299.29 58.55 314.65 41.53 324.44 34.16C353.5 12.32 388.14 1.93 431.06 2.08C473.07 2.38 497.62 10.66 534.21 36.87C535.17 37.55 539.93 40.96 548.52 47.11C553.76 43.13 556.67 40.92 557.25 40.48C562.07 36.72 566.29 33.85 566.59 34.16C567.19 34.91 570.35 105.84 570.35 121.2C570.35 130.08 569.9 133.39 568.55 133.24C567.49 133.24 546.41 126.77 521.71 119.09C497.02 111.41 476.54 104.78 476.08 104.33Z" id="e2xPH0T2sr"></path><path d="M236.88 119.14C236.88 54.01 184.09 1.22 118.96 1.22C53.84 1.22 1.04 54.01 1.04 119.14C1.04 184.26 53.84 237.06 118.96 237.06C184.04 237.06 236.82 184.34 236.88 119.26C236.88 119.23 236.88 119.16 236.88 119.14Z" id="fp4lbpUqQ"></path><path d="M213.84 191.15C174.07 243.55 99.34 253.79 46.95 214.02C38.32 207.47 30.63 199.78 24.08 191.15C27.23 191.15 42.98 191.15 71.32 191.15L71.32 131.6L118.96 160.18L166.61 131.6L166.61 191.15C191.8 191.15 207.54 191.15 213.84 191.15Z" id="bBCYQAx5f"></path><path d="M225.81 171.78C254.88 112.77 230.61 41.36 171.6 12.29C112.59 -16.78 41.18 7.49 12.11 66.5C-4.24 99.69 -4.24 138.59 12.11 171.78C14.77 171.78 28.04 171.78 51.94 171.78L51.94 97.38L118.96 137.59L185.98 97.38L185.98 171.78C207.22 171.78 220.5 171.78 225.81 171.78Z" id="a55UPTUJdi"></path><path d="M51.94 97.38L120.15 63.79L118.96 138.78L51.94 97.38Z" id="a8i0OOHjv"></path><path d="M185.98 97.38L118.96 63.79L118.96 138.78L185.98 97.38Z" id="f5bV5Ag88"></path><path d="M51.94 97.38L120.15 66.17L118.96 0.03L51.94 97.38Z" id="iklR3XIOx"></path><path d="M185.98 97.38L118.96 66.17L118.96 0.03L185.98 97.38Z" id="f5jLWGmKj"></path><path d="M71.32 131.6L118.96 160.18L118.96 238.25L71.32 131.6Z" id="a2g7cqZLP"></path><path d="M166.61 131.6L118.96 160.18L118.96 238.25L166.61 131.6Z" id="a3pmaXbOQH"></path></defs><g><g><g><use xlink:href="#auAWD0wyO" opacity="1" fill="#343434" fill-opacity="1"></use><g><use xlink:href="#auAWD0wyO" opacity="1" fill-opacity="0" stroke="#000000" stroke-width="1" stroke-opacity="0"></use></g></g><g><use xlink:href="#jlrtvMvm8" opacity="1" fill="#141414" fill-opacity="1"></use><g><use xlink:href="#jlrtvMvm8" opacity="1" fill-opacity="0" stroke="#000000" stroke-width="1" stroke-opacity="0"></use></g></g><g><use xlink:href="#aqsnpj3Bt" opacity="1" fill="#8c8c8c" fill-opacity="1"></use><g><use xlink:href="#aqsnpj3Bt" opacity="1" fill-opacity="0" stroke="#000000" stroke-width="1" stroke-opacity="0"></use></g></g><g><use xlink:href="#eZdNJYWkq" opacity="1" fill="#393939" fill-opacity="1"></use><g><use xlink:href="#eZdNJYWkq" opacity="1" fill-opacity="0" stroke="#000000" stroke-width="1" stroke-opacity="0"></use></g></g><g><use xlink:href="#a90t7Bd2la" opacity="1" fill="#8c8c8c" fill-opacity="1"></use><g><use xlink:href="#a90t7Bd2la" opacity="1" fill-opacity="0" stroke="#000000" stroke-width="1" stroke-opacity="0"></use></g></g><g><use xlink:href="#bsmT6mtPw" opacity="1" fill="#3c3c3b" fill-opacity="1"></use><g><use xlink:href="#bsmT6mtPw" opacity="1" fill-opacity="0" stroke="#000000" stroke-width="1" stroke-opacity="0"></use></g></g><g><use xlink:href="#b1vo1wpTn0" opacity="1" fill="#0f82ff" fill-opacity="1"></use><g><use xlink:href="#b1vo1wpTn0" opacity="1" fill-opacity="0" stroke="#000000" stroke-width="1" stroke-opacity="0"></use></g></g><g><use xlink:href="#e2xPH0T2sr" opacity="1" fill="#0f82ff" fill-opacity="1"></use><g><use xlink:href="#e2xPH0T2sr" opacity="1" fill-opacity="0" stroke="#000000" stroke-width="1" stroke-opacity="0"></use></g></g><g><use xlink:href="#fp4lbpUqQ" opacity="1" fill="#ffffff" fill-opacity="1"></use><g><use xlink:href="#fp4lbpUqQ" opacity="1" fill-opacity="0" stroke="#000000" stroke-width="1" stroke-opacity="0"></use></g></g><g><use xlink:href="#bBCYQAx5f" opacity="1" fill="#4c4c4c" fill-opacity="1"></use><g><use xlink:href="#bBCYQAx5f" opacity="1" fill-opacity="0" stroke="#000000" stroke-width="1" stroke-opacity="0"></use></g></g><g><use xlink:href="#a55UPTUJdi" opacity="1" fill="#ff6b01" fill-opacity="1"></use><g><use xlink:href="#a55UPTUJdi" opacity="1" fill-opacity="0" stroke="#000000" stroke-width="1" stroke-opacity="0"></use></g></g><g><use xlink:href="#a8i0OOHjv" opacity="1" fill="#353535" fill-opacity="1"></use><g><use xlink:href="#a8i0OOHjv" opacity="1" fill-opacity="0" stroke="#000000" stroke-width="1" stroke-opacity="0"></use></g></g><g><use xlink:href="#f5bV5Ag88" opacity="1" fill="#131313" fill-opacity="1"></use><g><use xlink:href="#f5bV5Ag88" opacity="1" fill-opacity="0" stroke="#000000" stroke-width="1" stroke-opacity="0"></use></g></g><g><use xlink:href="#iklR3XIOx" opacity="1" fill="#838383" fill-opacity="1"></use><g><use xlink:href="#iklR3XIOx" opacity="1" fill-opacity="0" stroke="#000000" stroke-width="1" stroke-opacity="0"></use></g></g><g><use xlink:href="#f5jLWGmKj" opacity="1" fill="#303030" fill-opacity="1"></use><g><use xlink:href="#f5jLWGmKj" opacity="1" fill-opacity="0" stroke="#000000" stroke-width="1" stroke-opacity="0"></use></g></g><g><use xlink:href="#a2g7cqZLP" opacity="1" fill="#838383" fill-opacity="1"></use><g><use xlink:href="#a2g7cqZLP" opacity="1" fill-opacity="0" stroke="#000000" stroke-width="1" stroke-opacity="0"></use></g></g><g><use xlink:href="#a3pmaXbOQH" opacity="1" fill="#303030" fill-opacity="1"></use><g><use xlink:href="#a3pmaXbOQH" opacity="1" fill-opacity="0" stroke="#000000" stroke-width="1" stroke-opacity="0"></use></g></g></g></g></svg>