<!DOCTYPE svg PUBLIC "-//W3C//DTD SVG 20010904//EN" "http://www.w3.org/TR/2001/REC-SVG-20010904/DTD/svg10.dtd">
<svg version="1.0" xmlns="http://www.w3.org/2000/svg" width="200px" height="200px" viewBox="0 0 2000 2000" preserveAspectRatio="xMidYMid meet">
<g id="layer101" fill="#0f82ff" stroke="none">
 <path d="M910 1779 c-52 -4 -131 -17 -175 -28 -105 -27 -277 -113 -395 -199 l-95 -69 -58 44 c-32 25 -60 43 -62 41 -7 -7 -29 -647 -23 -653 6 -6 588 169 617 185 10 5 -2 19 -43 50 -31 23 -56 48 -56 55 0 20 109 126 174 169 175 116 427 172 656 147 138 -15 261 -50 367 -105 46 -24 83 -38 83 -32 0 6 -22 39 -50 72 -183 227 -559 356 -940 323z"/>
 <path d="M1577 995 c-164 -51 -300 -95 -303 -98 -3 -3 20 -24 50 -48 31 -24 56 -49 56 -55 0 -20 -110 -126 -174 -168 -174 -115 -430 -173 -657 -148 -137 16 -261 51 -366 106 -46 24 -83 38 -83 32 0 -23 102 -136 167 -185 193 -145 423 -214 708 -213 279 2 442 57 685 231 l95 68 58 -44 c32 -25 60 -44 62 -42 4 5 25 476 25 578 0 59 -3 81 -12 80 -7 0 -147 -43 -311 -94z"/>
 </g>

</svg>
